<svg width="40" height="40" viewBox="0 0 40 40" fill="none" xmlns="http://www.w3.org/2000/svg">
<g clip-path="url(#clip0)">
<path d="M39.3685 6.6306L38.1685 0.579934C38.0968 0.218767 37.7459 -0.0158159 37.3848 0.0558507C37.3847 0.0558507 37.3846 0.0558507 37.3845 0.055934L4.35388 6.62327H3.33322C2.96505 6.62327 2.66655 6.92177 2.66655 7.28993V10.6899C1.11263 11.0039 -0.00353091 12.3713 -0.000114248 13.9566V36.6233C0.00205242 38.4633 1.49322 39.9544 3.33322 39.9566H39.3332C39.7013 39.9566 39.9998 39.6581 39.9998 39.2899V7.28993C39.9965 6.93793 39.72 6.64918 39.3685 6.6306ZM36.9892 1.49393L38.0079 6.62327H11.1912L36.9892 1.49393ZM1.91122 12.5419L1.91455 12.5446C2.12738 12.3334 2.38413 12.1718 2.66655 12.0713V15.8346C2.65188 15.8299 2.63722 15.8266 2.62255 15.8213C2.53647 15.787 2.45297 15.7467 2.37255 15.7006C2.33255 15.6786 2.28988 15.6613 2.25122 15.6339C2.13138 15.5585 2.01972 15.4709 1.91788 15.3726C1.13647 14.5918 1.13347 13.3263 1.91122 12.5419ZM38.6665 30.6233H29.3332V25.2899H38.6665V30.6233ZM38.6665 23.9566H28.6665C28.2984 23.9566 27.9999 24.2551 27.9999 24.6233V31.2899C27.9999 31.6581 28.2984 31.9566 28.6665 31.9566H38.6665V38.6233H3.33322C2.22863 38.6233 1.33322 37.7278 1.33322 36.6233V16.6233C1.36322 16.6459 1.39655 16.6613 1.42722 16.6826C1.48588 16.7239 1.54655 16.7593 1.60722 16.7966C1.71947 16.8652 1.83572 16.927 1.95522 16.9819C2.02188 17.0119 2.08855 17.0413 2.15522 17.0666C2.28347 17.1145 2.41463 17.1541 2.54788 17.1853C2.60988 17.2006 2.66988 17.2199 2.73255 17.2313C2.93055 17.2689 3.13163 17.2886 3.33322 17.2899H38.6665V23.9566ZM16.7139 15.9566C17.08 13.4054 19.445 11.6341 21.9962 12.0003C24.047 12.2946 25.6582 13.9058 25.9525 15.9566H16.7139ZM38.6665 15.9566H27.2939C26.915 12.6646 23.9393 10.303 20.6473 10.6818C17.8769 11.0007 15.6913 13.1862 15.3725 15.9566H3.99988V7.9566H38.6665V15.9566Z" fill="#383334"/>
<path d="M36.6666 9.29053H32.6666V10.6239H36V13.9572H37.3333V9.9572C37.3333 9.58894 37.0348 9.29053 36.6666 9.29053Z" fill="#383334"/>
<path d="M6.00004 9.29053C5.63187 9.29053 5.33337 9.58903 5.33337 9.9572V13.9572H6.66671V10.6239H10V9.29053H6.00004Z" fill="#383334"/>
<path d="M32 27.2905H30.6666V28.6239H32V27.2905Z" fill="#383334"/>
</g>
<defs>
<clipPath id="clip0">
<rect width="40" height="40" fill="white"/>
</clipPath>
</defs>
</svg>
