<svg width="32" height="36" viewBox="0 0 32 36" fill="none" xmlns="http://www.w3.org/2000/svg">
<path d="M10.3866 22.7757C10.0944 22.5291 9.7565 22.3425 9.39217 22.2265C9.02784 22.1106 8.64423 22.0675 8.26325 22.0997C7.49382 22.1649 6.7818 22.5331 6.28382 23.1232C5.78584 23.7134 5.54269 24.4772 5.60787 25.2466C5.67305 26.0161 6.04121 26.7281 6.63136 27.2261V29.7273C6.63825 30.2277 6.84187 30.7052 7.19815 31.0566C7.55444 31.408 8.03475 31.6051 8.53518 31.6051C9.03561 31.6051 9.51592 31.408 9.8722 31.0566C10.2285 30.7052 10.4321 30.2277 10.439 29.7273V27.2264C10.7598 26.9493 11.0161 26.6055 11.1902 26.219C11.3643 25.8325 11.4519 25.4127 11.4469 24.9888C11.4419 24.5649 11.3444 24.1473 11.1612 23.765C10.978 23.3828 10.7135 23.0451 10.3863 22.7757H10.3866ZM9.45395 26.3912C9.36821 26.4491 9.29798 26.5271 9.24944 26.6185C9.2009 26.7098 9.17553 26.8117 9.17556 26.9152V29.7269C9.17159 29.894 9.10242 30.053 8.98282 30.1698C8.86323 30.2865 8.7027 30.3519 8.53554 30.3519C8.36838 30.3519 8.20785 30.2865 8.08825 30.1698C7.96866 30.053 7.89949 29.894 7.89552 29.7269V26.9152C7.89556 26.8116 7.87012 26.7097 7.82144 26.6183C7.77276 26.5269 7.70235 26.4489 7.6164 26.3912C7.34685 26.2104 7.13669 25.9539 7.01227 25.6541C6.88784 25.3543 6.85469 25.0245 6.91696 24.7059C6.97923 24.3873 7.13416 24.0942 7.36233 23.8633C7.59049 23.6324 7.88174 23.474 8.19955 23.408C8.31135 23.3859 8.42502 23.3748 8.53897 23.3747C8.92051 23.3735 9.29031 23.5066 9.58358 23.7506C9.78202 23.9137 9.93956 24.121 10.0436 24.3559C10.1477 24.5907 10.1954 24.8467 10.1829 25.1032C10.1704 25.3598 10.0981 25.6099 9.97168 25.8335C9.8453 26.0572 9.66838 26.2482 9.45504 26.3912H9.45395Z" fill="#383334"/>
<path d="M30.8861 11.0177L16.5699 10.5472V1.93685C16.5693 1.4234 16.3651 0.931147 16.0021 0.568051C15.6391 0.204956 15.1469 0.000668977 14.6334 0H2.4382C1.92475 0.000668977 1.43253 0.204956 1.0695 0.568051C0.706477 0.931147 0.502282 1.4234 0.501709 1.93685V34.0632C0.502282 34.5766 0.706477 35.0689 1.0695 35.4319C1.43253 35.795 1.92475 35.9993 2.4382 36H14.6334C15.1469 35.9993 15.6391 35.795 16.0021 35.4319C16.3651 35.0689 16.5693 34.5766 16.5699 34.0632V16.4835L30.8861 16.014C31.05 16.0086 31.2054 15.9397 31.3194 15.8219C31.4334 15.704 31.4971 15.5465 31.4971 15.3825V11.6493C31.4971 11.4853 31.4334 11.3278 31.3194 11.2099C31.2054 11.0921 31.05 11.0232 30.8861 11.0177ZM15.3061 34.0632C15.3059 34.2415 15.235 34.4126 15.1089 34.5387C14.9828 34.6649 14.8118 34.7359 14.6334 34.7362H2.4382C2.25981 34.7359 2.08882 34.6649 1.96272 34.5387C1.83661 34.4126 1.76569 34.2415 1.7655 34.0632V1.93685C1.76569 1.75847 1.83661 1.58744 1.96272 1.46126C2.08882 1.33509 2.25981 1.26408 2.4382 1.26379H14.6334C14.8118 1.26408 14.9828 1.33509 15.1089 1.46126C15.235 1.58744 15.3059 1.75847 15.3061 1.93685V10.5057L13.0432 10.4313C12.3844 9.46855 11.4345 8.74202 10.3329 8.35814C9.23119 7.97425 8.03555 7.95319 6.92104 8.29803C5.80653 8.64287 4.83171 9.33549 4.13935 10.2745C3.44698 11.2134 3.07344 12.3494 3.07344 13.5161C3.07344 14.6827 3.44698 15.8187 4.13935 16.7577C4.83171 17.6966 5.80653 18.3893 6.92104 18.7341C8.03555 19.079 9.23119 19.0579 10.3329 18.674C11.4345 18.2901 12.3844 17.5636 13.0432 16.6008L15.305 16.5264L15.3061 34.0632ZM8.91856 16.7362L11.3053 16.6582C10.6992 17.1915 9.95204 17.5385 9.15353 17.6575C8.35501 17.7765 7.53913 17.6624 6.80387 17.329C6.06861 16.9956 5.44524 16.457 5.00865 15.7779C4.57205 15.0988 4.34079 14.3081 4.34265 13.5008C4.3445 12.6934 4.57939 11.9038 5.01911 11.2267C5.45882 10.5497 6.08466 10.0139 6.82144 9.68388C7.55823 9.35384 8.37463 9.24352 9.17259 9.36619C9.97054 9.48885 10.7161 9.83927 11.3198 10.3754L8.91892 10.2963H8.89798C8.46874 10.2876 8.04209 10.3648 7.64312 10.5234C7.24414 10.6819 6.8809 10.9187 6.57474 11.2196C6.26858 11.5206 6.02568 11.8798 5.86033 12.276C5.69497 12.6722 5.6105 13.0975 5.61187 13.5268C5.61324 13.9561 5.70043 14.3808 5.86832 14.776C6.0362 15.1711 6.28139 15.5287 6.58947 15.8277C6.89754 16.1267 7.2623 16.3611 7.66227 16.5172C8.06225 16.6732 8.48938 16.7477 8.91856 16.7362ZM30.2333 14.7712L15.9391 15.2406H15.9362L8.89834 15.4724C8.37929 15.4737 7.88099 15.2688 7.51305 14.9027C7.14512 14.5365 6.93769 14.0393 6.93639 13.5202C6.9351 13.0012 7.14005 12.5029 7.50616 12.1349C7.87227 11.767 8.36954 11.5596 8.88859 11.5583L30.2333 12.2599V14.7712Z" fill="#383334"/>
</svg>
