<svg width="40" height="40" viewBox="0 0 40 40" fill="none" xmlns="http://www.w3.org/2000/svg">
<path d="M3.125 19.375C3.12499 19.4026 3.12681 19.4302 3.13047 19.4576L5.48586 37.1228C5.54707 37.5727 5.76895 37.9852 6.11054 38.2843C6.45213 38.5833 6.89037 38.7487 7.34438 38.75H33.75C34.2471 38.7494 34.7237 38.5517 35.0752 38.2002C35.4267 37.8487 35.6244 37.3721 35.625 36.875V34.4164L38.1195 15.7076C38.1195 15.7049 38.1195 15.7022 38.1202 15.6998C38.1216 15.6872 38.1224 15.6744 38.1232 15.6615C38.1238 15.6521 38.1245 15.6428 38.1246 15.6334C38.1246 15.6307 38.1246 15.628 38.1246 15.6256V13.125C38.1246 12.9592 38.0588 12.8002 37.9416 12.683C37.8243 12.5658 37.6654 12.5 37.4996 12.5H25C24.8342 12.5 24.6753 12.5658 24.5581 12.683C24.4408 12.8002 24.375 12.9592 24.375 13.125V15.625C24.375 15.6278 24.375 15.6304 24.375 15.6328C24.375 15.6422 24.3759 15.6515 24.3764 15.6608C24.3772 15.6737 24.378 15.6865 24.3795 15.6992C24.3795 15.7019 24.3795 15.7045 24.3801 15.707L25.5323 24.3488C24.2758 24.2533 23.8873 23.9133 23.7736 23.7538C23.7331 23.6965 23.706 23.6308 23.6944 23.5616C23.6827 23.4923 23.6868 23.4214 23.7063 23.354C23.7485 23.2614 23.7664 23.1596 23.7582 23.0581C23.75 22.9567 23.716 22.8591 23.6595 22.7745C23.6008 22.6874 23.521 22.6165 23.4275 22.5685C23.3341 22.5205 23.23 22.4969 23.125 22.5C21.8815 22.5 20.923 22.7422 20.1336 23.102L20.6195 19.4576C20.6232 19.4302 20.625 19.4026 20.625 19.375C20.6238 17.8774 20.2092 16.4092 19.4268 15.1322C18.6445 13.8552 17.5247 12.8191 16.191 12.1379C16.2443 12.0239 16.2619 11.8964 16.2415 11.7722L15.6165 8.02224C15.5922 7.87631 15.5169 7.74373 15.404 7.6481C15.2911 7.55247 15.1479 7.49998 15 7.49998H14.375V4.99998H18.75C18.9158 4.99998 19.0747 4.93413 19.1919 4.81692C19.3092 4.69971 19.375 4.54074 19.375 4.37498V1.87498C19.375 1.7894 19.3574 1.70474 19.3234 1.62623C19.2893 1.54773 19.2395 1.47706 19.177 1.41859C19.1145 1.36013 19.0407 1.31512 18.9601 1.28636C18.8795 1.2576 18.7938 1.24569 18.7084 1.25138L9.33344 1.87638C9.20964 1.88464 9.0911 1.92955 8.99292 2.00541C8.89474 2.08126 8.82135 2.18462 8.78211 2.30232L8.15711 4.17732C8.12579 4.27127 8.11725 4.37132 8.13218 4.46921C8.14711 4.56711 8.18509 4.66006 8.24299 4.7404C8.30089 4.82074 8.37706 4.88617 8.46521 4.9313C8.55336 4.97643 8.65097 4.99997 8.75 4.99998H9.375V7.49998H8.75C8.60205 7.49998 8.4589 7.55247 8.34602 7.6481C8.23313 7.74373 8.15784 7.87631 8.13352 8.02224L7.50852 11.7722C7.48808 11.8964 7.50567 12.0239 7.55898 12.1379C6.22529 12.8191 5.10555 13.8552 4.32318 15.1322C3.54081 16.4092 3.12619 17.8774 3.125 19.375ZM28.75 37.5H13.6693C13.525 37.4998 13.3866 37.4424 13.2846 37.3404C13.1825 37.2383 13.1251 37.1 13.125 36.9557V30.5443C13.1251 30.4 13.1825 30.2616 13.2846 30.1596C13.3866 30.0575 13.525 30.0001 13.6693 30H28.8307C28.975 30.0001 29.1134 30.0575 29.2154 30.1596C29.3175 30.2616 29.3749 30.4 29.375 30.5443V36.9557C29.3749 37.1 29.3175 37.2383 29.2154 37.3404C29.1134 37.4424 28.975 37.4998 28.8307 37.5H28.75ZM15 27.5H27.5V28.75H15V27.5ZM34.375 36.875C34.3748 37.0407 34.3089 37.1995 34.1917 37.3167C34.0746 37.4339 33.9157 37.4998 33.75 37.5H30.5404C30.5965 37.324 30.6251 37.1404 30.625 36.9557V35H34.375V36.875ZM34.4531 33.75H30.625V30.5443C30.6245 30.0686 30.4353 29.6125 30.0989 29.2761C29.7625 28.9397 29.3064 28.7505 28.8307 28.75H28.75V26.875C28.75 26.8575 28.7488 26.8403 28.7474 26.8231C28.7474 26.8207 28.7468 26.8162 28.7464 26.8123V26.8102C28.6994 26.4006 28.5755 26.0035 28.3813 25.6397C28.2247 25.3341 28.0019 25.0672 27.7292 24.8585C27.4565 24.6497 27.1406 24.5044 26.8047 24.4331L25.7138 16.25H36.7862L34.4531 33.75ZM25.625 13.75H36.875V15H25.625V13.75ZM22.728 24.4393C23.2565 25.2261 24.4414 25.625 26.25 25.625C26.7188 25.625 27.0416 25.8101 27.2672 26.2076C27.275 26.2217 27.2828 26.2358 27.29 26.25H17.8923C18.159 26.0456 18.413 25.831 18.6648 25.6179C19.6824 24.7568 20.6496 23.9383 22.4621 23.7782C22.5023 24.015 22.593 24.2405 22.728 24.4393ZM9.83524 3.09568L18.125 2.54302V3.74998H9.61719L9.83524 3.09568ZM10.625 4.99998H13.125V7.49998H10.625V4.99998ZM8.86281 11.25L9.27945 8.74998H14.4705L14.8872 11.25H8.86281ZM11.25 12.5H12.5C14.3157 12.502 16.0571 13.2214 17.3448 14.5015C18.6325 15.7816 19.3622 17.5187 19.375 19.3344L18.7622 23.9297C18.4405 24.1704 18.1442 24.4208 17.8573 24.6636C16.8516 25.5149 15.9827 26.25 14.375 26.25C14.2092 26.25 14.0503 26.3158 13.9331 26.433C13.8158 26.5502 13.75 26.7092 13.75 26.875V28.75H13.6693C13.1936 28.7505 12.7375 28.9397 12.4011 29.2761C12.0648 29.6125 11.8755 30.0686 11.875 30.5443V36.9557C11.8749 37.1404 11.9035 37.324 11.9596 37.5H7.34438C7.19304 37.4995 7.04696 37.4444 6.93309 37.3447C6.81923 37.245 6.74526 37.1075 6.72484 36.9576L4.375 19.3344C4.38778 17.5187 5.11749 15.7816 6.4052 14.5015C7.69291 13.2214 9.43428 12.502 11.25 12.5Z" fill="#383334"/>
<path d="M21.25 31.25C20.7556 31.25 20.2722 31.3966 19.8611 31.6713C19.45 31.946 19.1295 32.3365 18.9403 32.7933C18.7511 33.2501 18.7016 33.7528 18.798 34.2377C18.8945 34.7227 19.1326 35.1681 19.4822 35.5178C19.8319 35.8674 20.2773 36.1055 20.7623 36.202C21.2472 36.2984 21.7499 36.2489 22.2067 36.0597C22.6635 35.8705 23.054 35.5501 23.3287 35.1389C23.6034 34.7278 23.75 34.2445 23.75 33.75C23.7493 33.0872 23.4856 32.4517 23.017 31.9831C22.5483 31.5144 21.9128 31.2507 21.25 31.25ZM21.25 35C21.0028 35 20.7611 34.9267 20.5555 34.7893C20.35 34.652 20.1898 34.4568 20.0952 34.2284C20.0005 34 19.9758 33.7486 20.024 33.5061C20.0723 33.2637 20.1913 33.0409 20.3661 32.8661C20.5409 32.6913 20.7637 32.5723 21.0061 32.524C21.2486 32.4758 21.5 32.5005 21.7284 32.5952C21.9568 32.6898 22.152 32.85 22.2893 33.0555C22.4267 33.2611 22.5 33.5028 22.5 33.75C22.4996 34.0814 22.3678 34.3991 22.1335 34.6335C21.8991 34.8678 21.5814 34.9996 21.25 35Z" fill="#383334"/>
<path d="M31.25 22.5C33.0312 22.5 34.375 21.694 34.375 20.625C34.375 19.556 33.0312 18.75 31.25 18.75C29.4688 18.75 28.125 19.556 28.125 20.625C28.125 21.694 29.4688 22.5 31.25 22.5ZM31.25 20C32.46 20 33.125 20.4695 33.125 20.625C33.125 20.7805 32.46 21.25 31.25 21.25C30.04 21.25 29.375 20.7805 29.375 20.625C29.375 20.4695 30.04 20 31.25 20Z" fill="#383334"/>
<path d="M8.125 21.875H15.625C15.7908 21.875 15.9497 21.8092 16.0669 21.6919C16.1842 21.5747 16.25 21.4158 16.25 21.25V17.5C16.25 17.3342 16.1842 17.1753 16.0669 17.0581C15.9497 16.9408 15.7908 16.875 15.625 16.875H8.125C7.95924 16.875 7.80027 16.9408 7.68306 17.0581C7.56585 17.1753 7.5 17.3342 7.5 17.5V21.25C7.5 21.4158 7.56585 21.5747 7.68306 21.6919C7.80027 21.8092 7.95924 21.875 8.125 21.875ZM8.75 18.125H15V20.625H8.75V18.125Z" fill="#383334"/>
</svg>
