<svg width="40" height="40" viewBox="0 0 40 40" fill="none" xmlns="http://www.w3.org/2000/svg">
<g clip-path="url(#clip0)">
<path d="M34.0001 0C33.632 0 33.3335 0.298503 33.3335 0.666674V6.66674H32.0001V0.666674C32.0001 0.298503 31.7016 0 31.3334 0C30.9653 0 30.6668 0.298503 30.6668 0.666674V6.66674H29.3334V0.666674C29.3334 0.298503 29.0349 0 28.6667 0C28.2986 0 28.0001 0.298503 28.0001 0.666674V6.66674H26.6667V0.666674C26.6667 0.298503 26.3682 0 26.0001 0C25.6319 0 25.3334 0.298503 25.3334 0.666674V8.66676C25.3311 10.4667 26.3674 12.1064 27.9941 12.8768L27.3334 37.3337C27.3384 38.8065 28.5363 39.9964 30.0091 39.9914C31.4819 39.9864 32.6718 38.7885 32.6668 37.3157L32.0061 12.8768C33.6328 12.1064 34.6691 10.4667 34.6668 8.66676V0.666674C34.6668 0.298503 34.3683 0 34.0001 0ZM30.9428 38.2764C30.4153 38.7803 29.5848 38.7803 29.0574 38.2764C28.8099 38.0321 28.6695 37.6995 28.6667 37.3517L29.3154 13.3335H30.6848L31.3334 37.3337C31.3344 37.6876 31.1937 38.027 30.9428 38.2764ZM33.3335 8.66676C33.3308 9.5501 32.9801 10.3969 32.3575 11.0234C31.0559 12.3254 28.9452 12.3256 27.6433 11.024C27.6431 11.0239 27.6429 11.0236 27.6427 11.0234C27.0201 10.3969 26.6694 9.5501 26.6667 8.66676V8.00008H33.3335V8.66676Z" fill="#383334"/>
<path d="M7.27576 1.00036L6.47109 0.195688C6.21067 -0.0646478 5.78858 -0.0645645 5.52824 0.195855C5.40333 0.320856 5.33308 0.490358 5.33308 0.667027V23.3339C5.33416 23.6882 5.61375 23.9789 5.96775 23.9939L5.33308 37.3341C5.33141 38.0417 5.61275 38.7205 6.11442 39.2194C7.15584 40.2608 8.84436 40.2607 9.88571 39.2193C10.3935 38.7114 10.675 38.0203 10.6665 37.3021L10.0325 24.0006H11.3331C11.7013 24.0006 11.9998 23.7021 11.9998 23.3339V12.4052C12.0114 8.12519 10.3103 4.01856 7.27576 1.00036ZM8.94245 38.2768C8.41502 38.7807 7.58452 38.7807 7.05709 38.2768C6.81276 38.036 6.67242 37.7091 6.66642 37.3661L7.30243 24.0006H8.69711L9.33312 37.3341C9.33403 37.6879 9.19337 38.0273 8.94245 38.2768ZM10.6665 22.6673H6.66642V2.28771C9.24562 5.02391 10.6772 8.64503 10.6665 12.4052V22.6673Z" fill="#383334"/>
<path d="M24 7.33341C24 3.29003 21.6073 0 18.6666 0C15.7259 0 13.3333 3.29003 13.3333 7.33341C13.3333 10.4001 14.7126 13.0335 16.6626 14.1248L15.9999 37.3337C16.0051 38.8065 17.2032 39.9963 18.676 39.9911C20.1487 39.9859 21.3385 38.7878 21.3333 37.3151L20.6707 14.1248C22.6207 13.0335 24 10.4001 24 7.33341ZM19.6093 38.2764C19.0819 38.7803 18.2514 38.7803 17.724 38.2764C17.4766 38.0322 17.3362 37.7 17.3333 37.3524L17.9813 14.6668H19.352L20 37.3337C20.0009 37.6876 19.8602 38.027 19.6093 38.2764ZM18.6666 13.3335C16.4606 13.3335 14.6666 10.6421 14.6666 7.33341C14.6666 4.02471 16.4606 1.33335 18.6666 1.33335C20.8727 1.33335 22.6667 4.02471 22.6667 7.33341C22.6667 10.6421 20.8727 13.3335 18.6666 13.3335Z" fill="#383334"/>
</g>
<defs>
<clipPath id="clip0">
<rect width="40" height="40" fill="white"/>
</clipPath>
</defs>
</svg>
