<svg width="40" height="40" viewBox="0 0 40 40" fill="none" xmlns="http://www.w3.org/2000/svg">
<g clip-path="url(#clip0)">
<path d="M35.1479 7.45045C34.8492 7.2549 34.4755 7.22358 34.1484 7.36631L33.7504 7.53998C34.1721 6.36834 34.2116 5.13381 33.8338 4.05022C33.815 3.99608 33.8202 3.93905 33.8471 3.8953C34.2043 3.3153 34.1414 2.5685 33.6577 2.08514L33.1798 1.60811C32.6931 1.121 31.9466 1.061 31.3693 1.41881C31.3265 1.44537 31.2688 1.45006 31.2154 1.4317C29.2923 0.761546 26.9804 1.3978 25.3255 3.05264C25.3214 3.05678 25.3174 3.06116 25.3133 3.0653C24.9547 2.73897 24.5172 2.66123 24.1482 2.60881C24.0229 2.591 23.9 2.57326 23.7745 2.54553C23.878 2.396 23.9704 2.23819 24.0508 2.07256C24.2721 1.61639 24.3951 1.10678 24.4062 0.598812C24.4134 0.275218 24.157 0.00717115 23.8334 6.17739e-05C23.5106 -0.0045476 23.2417 0.249359 23.2346 0.572874C23.2271 0.913656 23.1447 1.2553 22.9964 1.56092C22.9227 1.71272 22.8314 1.85725 22.7262 1.99108C22.548 1.82623 22.4438 1.6692 22.3358 1.50576C22.1768 1.2653 21.9966 0.992796 21.6316 0.803734C21.1377 0.548187 20.4782 0.542015 19.7243 0.785843C18.5777 1.15662 17.1039 2.16233 16.044 3.66459C15.4875 2.73264 14.6538 1.98444 13.657 1.53553C14.4254 1.05631 15.2673 1.18326 15.3104 1.1903C15.6295 1.24241 15.9312 1.02686 15.9839 0.707484C16.0366 0.388187 15.8205 0.0867024 15.5012 0.033968C15.4228 0.0211555 13.5981 -0.260094 12.3248 1.13623C9.11031 0.62264 6.18344 3.12631 6.18344 6.37264C6.18344 6.77694 6.23063 7.17967 6.32141 7.57162L5.85156 7.36639C5.52438 7.2235 5.1507 7.25483 4.85203 7.45045C4.55328 7.646 4.375 7.97592 4.375 8.33295V37.0701C4.375 38.6855 5.68922 39.9997 7.30469 39.9997H11.4416C11.7652 39.9997 12.0276 39.7375 12.0276 39.4138C12.0276 39.0901 11.7652 38.8279 11.4416 38.8279H7.30461C6.33531 38.8279 5.5468 38.0393 5.5468 37.0701V8.51194L6.70156 9.01584C7.18625 9.22748 7.74641 9.22811 8.2332 9.016L9.67781 8.38576C9.77187 8.34467 9.87289 8.3242 9.97383 8.32412C10.075 8.3242 10.1761 8.34475 10.2703 8.38576L11.7145 9.01592C11.9577 9.12209 12.2189 9.17514 12.4801 9.17514C12.7416 9.1753 13.0032 9.12225 13.2468 9.01592L14.6911 8.38576C14.7852 8.34475 14.8863 8.3242 14.9873 8.32412C15.0883 8.32428 15.1892 8.34475 15.2833 8.38584L16.727 9.01584C16.9708 9.12225 17.2325 9.1753 17.4943 9.17514C17.7555 9.17514 18.0167 9.12209 18.26 9.01592L19.7041 8.38576C19.798 8.34475 19.899 8.32428 19.9999 8.32412C20.1009 8.32428 20.2017 8.34483 20.2957 8.38576L21.7398 9.01592C21.9831 9.12209 22.2444 9.17514 22.5055 9.17514C22.7673 9.17537 23.0291 9.12233 23.2728 9.01584L24.7166 8.38584C24.8105 8.34475 24.9115 8.3242 25.0124 8.32412C25.1135 8.3242 25.2145 8.34475 25.3087 8.38576L26.753 9.01592C26.9965 9.12209 27.2578 9.17522 27.5191 9.17506C27.7805 9.17514 28.0419 9.12209 28.2854 9.01592L29.7294 8.38576C29.847 8.33451 29.9755 8.31522 30.1012 8.32787C30.1766 8.33561 30.2512 8.35491 30.3218 8.38569L31.7665 9.016C32.2526 9.22709 32.8135 9.22842 33.298 9.01584L34.4529 8.51194V11.4119C34.4529 11.7355 34.7152 11.9978 35.0388 11.9978C35.3624 11.9978 35.6248 11.7355 35.6248 11.4119V8.33295C35.6249 7.97592 35.4466 7.646 35.1479 7.45045ZM15.5287 7.23069C15.3836 7.18811 15.2345 7.16248 15.0846 7.15498C14.7911 7.13998 14.4947 7.19225 14.2209 7.3117L12.7768 7.94186C12.6829 7.98287 12.582 8.00334 12.4812 8.0035C12.3799 8.0035 12.2787 7.98295 12.1845 7.94186L10.7402 7.3117C10.527 7.21873 10.3002 7.16655 10.0716 7.15506C9.77813 7.14006 9.48172 7.19225 9.20797 7.3117C9.12836 7.34647 7.75703 7.951 7.67906 7.97225C7.46766 7.46873 7.35539 6.9228 7.35539 6.37241C7.35539 4.03045 9.31258 2.15256 11.6502 2.2453C11.4932 2.6717 11.4307 3.0985 11.4248 3.48225C11.3917 3.44983 11.3677 3.42201 11.3534 3.40428C11.1501 3.15248 10.7812 3.11327 10.5295 3.3167C10.2777 3.52006 10.2385 3.88889 10.4418 4.14069C10.6049 4.34264 11.067 4.82381 11.8336 4.93084C11.9346 4.94498 12.0323 4.95131 12.1266 4.95131C12.8314 4.95131 13.3383 4.59678 13.4902 4.476C13.7435 4.27467 13.7857 3.90608 13.5843 3.65272C13.383 3.39951 13.0144 3.35725 12.761 3.55866C12.7395 3.57577 12.6823 3.61834 12.5977 3.66162C12.5809 3.33584 12.6161 2.89967 12.8252 2.46475C14.4484 3.02202 15.6186 4.56264 15.6186 6.37241C15.6187 6.66311 15.588 6.94998 15.5287 7.23069ZM24.4889 7.22702C24.4067 7.2503 24.3255 7.27725 24.2465 7.3117L22.8023 7.94186C22.7066 7.98358 22.6037 8.00397 22.5009 8.00334C22.4018 8.00248 22.3028 7.98217 22.2104 7.94178L20.7667 7.31178C20.5231 7.20545 20.2616 7.15241 20 7.15256C19.7384 7.15241 19.477 7.20545 19.2334 7.31178L17.7895 7.94178C17.6956 7.9828 17.5948 8.00334 17.4941 8.0035C17.393 8.00342 17.292 7.98287 17.1978 7.94186L16.624 7.69147C16.7339 7.26225 16.7906 6.82069 16.7906 6.37241C16.7906 5.8892 16.7252 5.42123 16.6034 4.97616C17.4993 3.34866 19.0158 2.24639 20.085 1.90061C20.5155 1.76147 20.8923 1.74037 21.093 1.8442C21.18 1.8892 21.2291 1.95623 21.3584 2.15178C21.5374 2.42256 21.7826 2.7935 22.3316 3.16912C23.0046 3.62967 23.5702 3.71006 23.9833 3.76881C24.4265 3.83186 24.5665 3.85905 24.7171 4.2278C24.7185 4.23116 24.7195 4.23467 24.7209 4.23795C24.8117 4.46764 24.8636 4.78287 24.8659 5.14936C24.8699 5.77123 24.737 6.49881 24.4889 7.22702ZM32.2707 7.95436C32.2591 7.94998 32.2473 7.94678 32.2359 7.94178L30.7919 7.3117C30.5484 7.20553 30.287 7.15241 30.0255 7.15256C29.7643 7.15256 29.503 7.20561 29.2597 7.3117L27.8154 7.94186C27.7215 7.98287 27.6206 8.00334 27.5198 8.0035C27.4186 8.0035 27.3174 7.98295 27.2231 7.94186C27.1367 7.9042 25.7797 7.31131 25.7015 7.28053C25.9241 6.53662 26.042 5.79584 26.0377 5.14178C26.0353 4.76912 25.9944 4.43186 25.9168 4.13397C27.2067 2.65756 29.2222 1.97787 30.8304 2.53842C31.2279 2.67694 31.6752 2.6085 32.0276 2.38991C32.1266 2.3285 32.2627 2.34819 32.3516 2.43709L32.8295 2.91412C32.9178 3.00248 32.937 3.13912 32.8755 3.23866C32.6547 3.59569 32.5884 4.03733 32.7272 4.43553C33.103 5.51405 32.9298 6.80616 32.2707 7.95436ZM35.039 13.5603C34.7154 13.5603 34.453 13.8226 34.453 14.1462V37.0701C34.453 38.0393 33.6645 38.8279 32.6952 38.8279H14.176C13.8524 38.8279 13.5901 39.0901 13.5901 39.4138C13.5901 39.7375 13.8524 39.9997 14.176 39.9997H32.6953C34.3108 39.9997 35.625 38.6855 35.625 37.0701V14.1462C35.6249 13.8226 35.3627 13.5603 35.039 13.5603ZM19.2139 30.8752C19.503 31.0048 19.8542 30.8793 19.9883 30.5803C20.1764 30.1607 20.3423 29.7335 20.487 29.3001C22.9415 28.2782 23.8762 26.6805 24.2176 25.7994C24.8016 24.2917 24.6748 22.5037 23.8605 20.7646C23.033 18.9972 21.543 17.4296 19.6648 16.3502C19.38 16.1865 19.0378 16.1828 18.7495 16.3401C18.462 16.4972 18.2807 16.7859 18.2646 17.1128C18.2146 18.1255 17.7872 19.0971 17.1955 19.8472C17.0324 20.054 16.8475 20.2883 16.658 20.578C16.0155 21.5597 15.3106 23.2206 15.4382 24.6701C15.6539 27.1201 18.1687 28.6261 19.2881 29.1793C19.1771 29.4903 19.0548 29.798 18.9189 30.1009C18.7866 30.3961 18.9187 30.7429 19.2139 30.8752ZM16.6056 24.5671C16.5108 23.4901 17.0562 22.1097 17.6387 21.2194C17.7998 20.9733 17.9603 20.7697 18.1155 20.573C18.7623 19.7533 19.2774 18.6896 19.4037 17.5597C20.9222 18.5081 22.1202 19.8114 22.7992 21.2615C23.4766 22.7083 23.5923 24.1695 23.1248 25.3762C22.8937 25.9726 22.313 26.9831 20.8946 27.798C21.0751 26.9243 21.1779 26.0406 21.1891 25.1521L22.2429 23.9088C22.4521 23.6619 22.4216 23.2922 22.1747 23.083C21.9278 22.8738 21.558 22.9044 21.3488 23.1511L21.1055 23.4382C21.0184 22.663 20.8651 21.8933 20.6449 21.1339C20.5548 20.823 20.2297 20.644 19.9191 20.7343C19.6082 20.8243 19.4293 21.1493 19.5194 21.4601C19.8295 22.5301 19.9956 23.6219 20.0169 24.7206C19.657 24.3075 19.2526 23.9333 18.8101 23.6065C18.5497 23.4143 18.1828 23.4694 17.9906 23.7298C17.7984 23.9901 17.8536 24.3569 18.1139 24.5492C18.5617 24.8799 18.9641 25.2673 19.3097 25.7006C19.5352 25.9834 19.7358 26.2881 19.9106 26.6066C19.8469 27.0899 19.7538 27.5679 19.6346 28.0394C18.6463 27.5228 16.7596 26.3162 16.6056 24.5671Z" fill="#383334"/>
</g>
<defs>
<clipPath id="clip0">
<rect width="40" height="40" fill="white"/>
</clipPath>
</defs>
</svg>
