<svg width="40" height="40" viewBox="0 0 40 40" fill="none" xmlns="http://www.w3.org/2000/svg">
<path d="M34.7696 15.4844C34.8416 15.4259 34.8997 15.352 34.9396 15.2682C34.9794 15.1844 35.0001 15.0928 35 15V11.25C34.9995 10.8576 34.876 10.4752 34.647 10.1566C34.418 9.83794 34.095 9.59904 33.7232 9.47344C33.6053 8.29433 33.0814 7.1928 32.2412 6.35719L31.9509 6.06687C31.728 5.84522 31.5512 5.58156 31.4309 5.29115C31.3106 5.00074 31.2491 4.68934 31.25 4.375C31.25 3.5462 30.9208 2.75134 30.3347 2.16529C29.7487 1.57924 28.9538 1.25 28.125 1.25C27.2962 1.25 26.5013 1.57924 25.9153 2.16529C25.3292 2.75134 25 3.5462 25 4.375C25.0009 4.68934 24.9394 5.00074 24.8191 5.29115C24.6988 5.58156 24.522 5.84522 24.2991 6.06687L24.0088 6.35719C23.1686 7.1928 22.6447 8.29433 22.5268 9.47344C22.155 9.59904 21.832 9.83794 21.603 10.1566C21.374 10.4752 21.2505 10.8576 21.25 11.25V15C21.2499 15.0928 21.2706 15.1844 21.3104 15.2682C21.3503 15.352 21.4084 15.4259 21.4804 15.4844L21.3137 15.7623C20.4541 17.1951 20.0001 18.8345 20 20.5053V34.375C20.0013 35.5349 20.4627 36.647 21.2828 37.4672C22.103 38.2873 23.2151 38.7487 24.375 38.75H31.875C33.0349 38.7487 34.147 38.2873 34.9672 37.4672C35.7873 36.647 36.2487 35.5349 36.25 34.375V20.5053C36.2499 18.8345 35.7959 17.1951 34.9363 15.7623L34.7696 15.4844ZM24.8928 7.24117L25.1831 6.95086C25.5224 6.61337 25.7914 6.21193 25.9746 5.76979C26.1577 5.32764 26.2513 4.85357 26.25 4.375C26.25 3.87772 26.4475 3.40081 26.7992 3.04917C27.1508 2.69754 27.6277 2.5 28.125 2.5C28.6223 2.5 29.0992 2.69754 29.4508 3.04917C29.8025 3.40081 30 3.87772 30 4.375C29.9987 4.85357 30.0923 5.32764 30.2754 5.76979C30.4586 6.21193 30.7276 6.61337 31.0669 6.95086L31.3572 7.24117C31.9384 7.8188 32.3213 8.56591 32.4509 9.375H23.7995C23.929 8.56596 24.3118 7.81885 24.8928 7.24117ZM22.5 13.125H25V11.875H22.5V11.25C22.5002 11.0843 22.5661 10.9254 22.6833 10.8083C22.8004 10.6911 22.9593 10.6252 23.125 10.625H33.125C33.2907 10.6252 33.4496 10.6911 33.5667 10.8083C33.6839 10.9254 33.7498 11.0843 33.75 11.25V11.875H26.25V13.125H33.75V14.375H22.5V13.125ZM35 34.375C34.9991 35.2035 34.6695 35.9978 34.0837 36.5837C33.4978 37.1695 32.7035 37.4991 31.875 37.5H24.375C23.5465 37.4991 22.7522 37.1695 22.1663 36.5837C21.5805 35.9978 21.2509 35.2035 21.25 34.375V20.5053C21.25 19.061 21.6426 17.6439 22.3856 16.4055L22.8538 15.625H33.3962L33.8644 16.4055C34.6074 17.6439 35 19.061 35 20.5053V34.375Z" fill="#383334"/>
<path d="M28.125 21.875H30V23.125H28.125V21.875Z" fill="#383334"/>
<path d="M28.125 19.375H31.25V20.625H28.125V19.375Z" fill="#383334"/>
<path d="M28.125 24.375H31.25V25.625H28.125V24.375Z" fill="#383334"/>
<path d="M28.125 26.875H30V28.125H28.125V26.875Z" fill="#383334"/>
<path d="M28.125 29.375H31.25V30.625H28.125V29.375Z" fill="#383334"/>
<path d="M17.8627 24.6892C17.5851 24.4571 17.2599 24.2889 16.91 24.1967C16.5602 24.1044 16.1943 24.0904 15.8384 24.1555C15.6814 24.1841 15.5241 24.2102 15.367 24.2358L14.7185 22.6141C14.5141 22.1055 14.4761 21.5452 14.6099 21.0136C14.7327 20.5226 14.7419 20.0101 14.637 19.5151C14.532 19.02 14.3156 18.5553 14.0042 18.1564C13.6929 17.7574 13.2946 17.4347 12.8399 17.2127C12.3851 16.9906 11.8857 16.8752 11.3796 16.875H11.1202C10.2376 16.8775 9.39152 17.2279 8.76555 17.8502C8.35902 18.257 8.06469 18.7622 7.91119 19.3165C7.7577 19.8708 7.75027 20.4553 7.88962 21.0134C8.02278 21.545 7.98483 22.1052 7.78118 22.6141L7.13274 24.2358C6.97555 24.2102 6.81837 24.1841 6.66141 24.1555C6.01692 24.0383 5.35227 24.1819 4.81369 24.5548C4.27511 24.9277 3.90671 25.4993 3.78954 26.1438C3.67237 26.7882 3.81602 27.4529 4.18889 27.9915C4.56177 28.5301 5.13332 28.8985 5.77782 29.0156L6.03149 29.0618C5.41047 30.004 5.05613 31.0968 5.00608 32.2241C4.95603 33.3515 5.21214 34.4714 5.74722 35.4649C6.2823 36.4584 7.0764 37.2886 8.04523 37.8672C9.01405 38.4458 10.1215 38.7513 11.2499 38.7513C12.3784 38.7513 13.4858 38.4458 14.4546 37.8672C15.4235 37.2886 16.2176 36.4584 16.7526 35.4649C17.2877 34.4714 17.5438 33.3515 17.4938 32.2241C17.4437 31.0968 17.0894 30.004 16.4684 29.0618L16.722 29.0156C17.184 28.9316 17.6125 28.7176 17.9572 28.3988C18.3019 28.0799 18.5486 27.6694 18.6683 27.2154C18.788 26.7613 18.7758 26.2825 18.6331 25.8352C18.4905 25.3878 18.2232 24.9904 17.8627 24.6895V24.6892ZM8.94188 23.0781C9.24345 22.3246 9.29953 21.4952 9.10212 20.708C9.01547 20.3596 9.02036 19.9948 9.11632 19.6489C9.21228 19.303 9.39604 18.9878 9.64977 18.7339C10.0407 18.3453 10.569 18.1265 11.1202 18.125H11.3796C11.6956 18.1252 12.0074 18.1973 12.2914 18.336C12.5754 18.4747 12.824 18.6762 13.0185 18.9253C13.213 19.1743 13.3482 19.4644 13.4139 19.7735C13.4795 20.0827 13.4739 20.4027 13.3975 20.7093C13.1991 21.496 13.2553 22.3253 13.5579 23.078L14.0911 24.4116C12.2029 24.6234 10.297 24.6234 8.40876 24.4116L8.94188 23.0781ZM11.2499 37.5C10.2988 37.5003 9.36737 37.2292 8.56495 36.7186C7.76252 36.208 7.12243 35.4791 6.71984 34.6174C6.31724 33.7557 6.16886 32.797 6.29211 31.8539C6.41536 30.9108 6.80512 30.0225 7.41563 29.2932C7.95423 29.371 8.49365 29.4323 9.03391 29.4773C8.39607 29.9445 7.92222 30.6014 7.68009 31.3541C7.43796 32.1068 7.43994 32.9167 7.68573 33.6682C7.93153 34.4197 8.40858 35.0743 9.0487 35.5384C9.68882 36.0025 10.4593 36.2525 11.2499 36.2525C12.0406 36.2525 12.811 36.0025 13.4512 35.5384C14.0913 35.0743 14.5683 34.4197 14.8141 33.6682C15.0599 32.9167 15.0619 32.1068 14.8198 31.3541C14.5776 30.6014 14.1038 29.9445 13.4659 29.4773C14.0061 29.4323 14.5455 29.371 15.0842 29.2932C15.6947 30.0225 16.0845 30.9108 16.2078 31.8539C16.331 32.797 16.1826 33.7557 15.78 34.6174C15.3774 35.4791 14.7373 36.208 13.9349 36.7186C13.1325 37.2292 12.201 37.5003 11.2499 37.5ZM11.2499 30C11.7444 30 12.2277 30.1466 12.6389 30.4213C13.05 30.696 13.3704 31.0865 13.5596 31.5433C13.7488 32.0001 13.7984 32.5028 13.7019 32.9877C13.6054 33.4727 13.3673 33.9181 13.0177 34.2678C12.6681 34.6174 12.2226 34.8555 11.7377 34.952C11.2527 35.0484 10.75 34.9989 10.2932 34.8097C9.83641 34.6205 9.44596 34.3 9.17126 33.8889C8.89655 33.4778 8.74993 32.9945 8.74993 32.5C8.75067 31.8372 9.01431 31.2017 9.48299 30.7331C9.95166 30.2644 10.5871 30.0007 11.2499 30ZM16.4984 27.7855L15.8384 27.9055C12.8045 28.4591 9.69546 28.4591 6.66157 27.9055L6.00149 27.7855C5.68322 27.7276 5.40098 27.5457 5.21685 27.2797C5.03272 27.0137 4.96179 26.6855 5.01966 26.3672C5.07753 26.049 5.25946 25.7667 5.52543 25.5826C5.7914 25.3984 6.11963 25.3275 6.4379 25.3854C9.61968 25.9659 12.8803 25.9659 16.062 25.3854C16.2196 25.3567 16.3813 25.3594 16.5379 25.3932C16.6944 25.4271 16.8428 25.4914 16.9745 25.5826C17.1062 25.6738 17.2186 25.79 17.3054 25.9246C17.3922 26.0593 17.4516 26.2097 17.4802 26.3673C17.5089 26.5249 17.5062 26.6865 17.4724 26.8431C17.4385 26.9997 17.3742 27.148 17.283 27.2797C17.1918 27.4114 17.0756 27.5239 16.941 27.6106C16.8064 27.6974 16.656 27.7568 16.4984 27.7855Z" fill="#383334"/>
<path d="M23.125 32.5C22.9592 32.5 22.8003 32.5658 22.6831 32.6831C22.5658 32.8003 22.5 32.9592 22.5 33.125V33.75C22.5 33.9158 22.5658 34.0747 22.6831 34.1919C22.8003 34.3092 22.9592 34.375 23.125 34.375C23.2908 34.375 23.4497 34.3092 23.5669 34.1919C23.6842 34.0747 23.75 33.9158 23.75 33.75V33.125C23.75 32.9592 23.6842 32.8003 23.5669 32.6831C23.4497 32.5658 23.2908 32.5 23.125 32.5Z" fill="#383334"/>
<path d="M23.125 28.125C22.9592 28.125 22.8003 28.1908 22.6831 28.3081C22.5658 28.4253 22.5 28.5842 22.5 28.75V30.625C22.5 30.7908 22.5658 30.9497 22.6831 31.0669C22.8003 31.1842 22.9592 31.25 23.125 31.25C23.2908 31.25 23.4497 31.1842 23.5669 31.0669C23.6842 30.9497 23.75 30.7908 23.75 30.625V28.75C23.75 28.5842 23.6842 28.4253 23.5669 28.3081C23.4497 28.1908 23.2908 28.125 23.125 28.125Z" fill="#383334"/>
</svg>
